<svg width="919" height="116" viewBox="0 0 919 116" fill="none" xmlns="http://www.w3.org/2000/svg">
<path d="M99.7959 41.8853C92.9012 17.5863 70.4932 -0.264771 43.8514 0.00297206C38.135 0.0604272 32.0347 1.77424 28.5725 6.00584C26.7651 8.21484 26.2726 11.5576 27.5015 14.3733C27.8864 15.2553 29.4092 17.8876 32.8733 18.3896C34.2317 18.5865 36.5383 18.3227 38.8811 18.5235C43.2414 18.8972 46.2444 20.8664 47.3824 24.548C48.6766 28.7352 45.9097 33.5179 39.4836 35.7269C35.4688 37.107 29.7628 38.1316 21.2091 42.4208C3.88858 51.1062 -2.43719 70.0835 0.826112 84.4922C3.66478 97.026 12.6027 107.578 24.372 112.054C39.6844 117.878 59.8541 116.68 76.0994 105.879C88.3326 97.7462 94.3312 87.0135 96.5159 82.1828C102.54 68.8619 103.551 55.1187 99.7959 41.8853ZM41.9284 91.4757C33.9928 93.7744 25.6962 89.2044 23.3976 81.2687C21.0988 73.3333 25.6685 65.0368 33.6042 62.7384C41.5398 60.4398 49.8364 65.0097 52.1351 72.9452C54.4338 80.8809 49.8641 89.1774 41.9284 91.4757ZM61.2389 22.9415C58.2443 22.9415 55.8168 20.5139 55.8168 17.5194C55.8168 14.5249 58.2443 12.0973 61.2389 12.0973C64.2334 12.0973 66.6609 14.5249 66.6609 17.5194C66.6609 20.5139 64.2334 22.9415 61.2389 22.9415ZM70.2595 34.2826C70.2595 30.5397 73.2937 27.5055 77.0365 27.5055C80.7794 27.5055 83.8136 30.5397 83.8136 34.2826C83.8136 38.0254 80.7794 41.0596 77.0365 41.0596C73.2937 41.0596 70.2595 38.0254 70.2595 34.2826ZM78.6431 68.7835C74.0069 68.7835 70.2485 65.0251 70.2485 60.3889C70.2485 55.7527 74.0069 51.9943 78.6431 51.9943C83.2793 51.9943 87.0377 55.7527 87.0377 60.3889C87.0377 65.0251 83.2793 68.7835 78.6431 68.7835Z" fill="#FF6B4D"/>
<path d="M887.052 88.9557C882.741 88.9557 878.674 88.1557 874.852 86.5557C871.074 84.9112 867.741 82.6668 864.852 79.8223C862.008 76.9779 859.763 73.6668 858.119 69.889C856.519 66.1112 855.719 62.0668 855.719 57.7557C855.719 53.4445 856.519 49.4001 858.119 45.6223C859.763 41.8445 862.008 38.5334 864.852 35.689C867.741 32.8445 871.074 30.6223 874.852 29.0223C878.674 27.3779 882.741 26.5557 887.052 26.5557C891.408 26.5557 895.474 27.3779 899.252 29.0223C903.03 30.6223 906.341 32.8445 909.185 35.689C912.074 38.5334 914.319 41.8445 915.919 45.6223C917.563 49.4001 918.385 53.4445 918.385 57.7557C918.385 62.0668 917.563 66.1112 915.919 69.889C914.319 73.6668 912.074 76.9779 909.185 79.8223C906.341 82.6668 903.03 84.9112 899.252 86.5557C895.474 88.1557 891.408 88.9557 887.052 88.9557ZM887.052 81.7557C891.452 81.7557 895.43 80.689 898.985 78.5557C902.541 76.3779 905.341 73.4668 907.385 69.8223C909.474 66.1779 910.519 62.1557 910.519 57.7557C910.519 53.3112 909.474 49.289 907.385 45.689C905.341 42.0445 902.541 39.1557 898.985 37.0223C895.43 34.8445 891.452 33.7557 887.052 33.7557C882.652 33.7557 878.674 34.8445 875.119 37.0223C871.608 39.1557 868.808 42.0445 866.719 45.689C864.63 49.289 863.585 53.3112 863.585 57.7557C863.585 62.1557 864.63 66.1779 866.719 69.8223C868.808 73.4668 871.608 76.3779 875.119 78.5557C878.674 80.689 882.652 81.7557 887.052 81.7557Z" fill="#2B2424"/>
<path d="M834.95 87.7556V27.7556H842.55V87.7556H834.95Z" fill="#2B2424"/>
<path d="M770.119 87.7556V27.7556H789.785C795.208 27.7556 799.919 28.6445 803.919 30.4223C807.963 32.2001 811.296 34.5556 813.919 37.4889C816.541 40.4223 818.496 43.6667 819.785 47.2223C821.074 50.7334 821.719 54.2445 821.719 57.7556C821.719 61.2667 821.074 64.8001 819.785 68.3556C818.496 71.8667 816.541 75.0889 813.919 78.0223C811.296 80.9556 807.963 83.3112 803.919 85.089C799.919 86.8667 795.208 87.7556 789.785 87.7556H770.119ZM777.719 80.9556H788.985C793.608 80.9556 797.496 80.2445 800.652 78.8223C803.808 77.3556 806.363 75.4667 808.319 73.1556C810.274 70.8001 811.674 68.2667 812.519 65.5556C813.408 62.8445 813.852 60.2445 813.852 57.7556C813.852 55.2667 813.408 52.6667 812.519 49.9556C811.674 47.2445 810.274 44.7334 808.319 42.4223C806.363 40.0667 803.808 38.1778 800.652 36.7556C797.496 35.2889 793.608 34.5556 788.985 34.5556H777.719V80.9556Z" fill="#2B2424"/>
<path d="M735.042 88.5556C731.264 88.5556 727.908 87.7334 724.975 86.089C722.042 84.4001 719.731 82.089 718.042 79.1556C716.397 76.1778 715.575 72.7556 715.575 68.8889V27.7556H723.175V68.6223C723.175 72.5778 724.309 75.7556 726.575 78.1556C728.842 80.5556 731.709 81.7556 735.175 81.7556C738.597 81.7556 741.442 80.5778 743.708 78.2223C746.02 75.8223 747.175 72.7112 747.175 68.8889V27.7556H754.509V68.6223C754.509 72.5334 753.664 76.0001 751.975 79.0223C750.331 82.0001 748.042 84.3334 745.109 86.0223C742.22 87.7112 738.864 88.5556 735.042 88.5556Z" fill="#2B2424"/>
<path d="M665.544 34.5556V27.7556H705.144V34.5556H689.144V87.7556H681.544V34.5556H665.544Z" fill="#2B2424"/>
<path d="M641.677 88.5556C638.122 88.5556 634.899 87.8445 632.01 86.4222C629.166 85 626.899 83.2667 625.21 81.2222L627.41 72.0222C628.655 74.5111 630.522 76.7556 633.01 78.7556C635.499 80.7556 638.477 81.7556 641.944 81.7556C645.099 81.7556 647.699 80.7556 649.744 78.7556C651.833 76.7556 652.877 74.2889 652.877 71.3556C652.877 69.2222 652.366 67.4667 651.344 66.0889C650.322 64.7111 649.166 63.6222 647.877 62.8222C646.588 62.0222 645.566 61.4445 644.81 61.0889L637.477 57.3556C636.322 56.7333 634.877 55.8667 633.144 54.7556C631.455 53.6445 629.966 52.1111 628.677 50.1556C627.388 48.2 626.744 45.6667 626.744 42.5556C626.744 39.5333 627.433 36.8445 628.81 34.4889C630.233 32.1333 632.188 30.2889 634.677 28.9556C637.21 27.6222 640.099 26.9556 643.344 26.9556C646.544 26.9556 649.366 27.5333 651.81 28.6889C654.255 29.8 656.166 30.9556 657.544 32.1556L655.344 41.3556C654.233 39.4889 652.588 37.7333 650.41 36.0889C648.233 34.4445 645.766 33.6222 643.01 33.6222C640.344 33.6222 638.21 34.4222 636.61 36.0222C635.01 37.5778 634.21 39.5111 634.21 41.8222C634.21 43.6 634.61 45.0667 635.41 46.2222C636.255 47.3778 637.188 48.2889 638.21 48.9556C639.277 49.6222 640.144 50.1333 640.81 50.4889L648.277 54.2222C649.166 54.6667 650.277 55.2889 651.61 56.0889C652.988 56.8889 654.344 57.9556 655.677 59.2889C657.01 60.5778 658.122 62.1778 659.01 64.0889C659.899 65.9556 660.344 68.2222 660.344 70.8889C660.344 74.3111 659.522 77.3556 657.877 80.0222C656.277 82.6889 654.077 84.7778 651.277 86.2889C648.477 87.8 645.277 88.5556 641.677 88.5556Z" fill="#2B2424"/>
<path d="M591.975 89.7556L549.975 44.7556V87.7556H542.775V25.7556L584.775 70.7556V27.7556H591.975V89.7556Z" fill="#2B2424"/>
<path d="M499.021 88.9557C494.71 88.9557 490.643 88.1557 486.821 86.5557C483.043 84.9112 479.71 82.6668 476.821 79.8223C473.976 76.9779 471.732 73.6668 470.087 69.889C468.487 66.1112 467.688 62.0668 467.688 57.7557C467.688 53.4445 468.487 49.4001 470.087 45.6223C471.732 41.8445 473.976 38.5334 476.821 35.689C479.71 32.8445 483.043 30.6223 486.821 29.0223C490.643 27.3779 494.71 26.5557 499.021 26.5557C503.376 26.5557 507.443 27.3779 511.221 29.0223C514.999 30.6223 518.31 32.8445 521.154 35.689C524.043 38.5334 526.288 41.8445 527.888 45.6223C529.532 49.4001 530.354 53.4445 530.354 57.7557C530.354 62.0668 529.532 66.1112 527.888 69.889C526.288 73.6668 524.043 76.9779 521.154 79.8223C518.31 82.6668 514.999 84.9112 511.221 86.5557C507.443 88.1557 503.376 88.9557 499.021 88.9557ZM499.021 81.7557C503.421 81.7557 507.399 80.689 510.954 78.5557C514.51 76.3779 517.31 73.4668 519.354 69.8223C521.443 66.1779 522.487 62.1557 522.487 57.7557C522.487 53.3112 521.443 49.289 519.354 45.689C517.31 42.0445 514.51 39.1557 510.954 37.0223C507.399 34.8445 503.421 33.7557 499.021 33.7557C494.621 33.7557 490.643 34.8445 487.087 37.0223C483.576 39.1557 480.776 42.0445 478.688 45.689C476.599 49.289 475.554 53.3112 475.554 57.7557C475.554 62.1557 476.599 66.1779 478.688 69.8223C480.776 73.4668 483.576 76.3779 487.087 78.5557C490.643 80.689 494.621 81.7557 499.021 81.7557Z" fill="#2B2424"/>
<path d="M446.919 87.7556V27.7556H454.519V87.7556H446.919Z" fill="#2B2424"/>
<path d="M394.888 34.5556V27.7556H434.488V34.5556H418.488V87.7556H410.888V34.5556H394.888Z" fill="#2B2424"/>
<path d="M347.513 87.7556L372.913 25.7556H373.046L398.446 87.7556H390.379L383.313 69.9556H362.313L355.179 87.7556H347.513ZM364.846 63.6223H380.779L376.046 51.7556C375.468 50.2445 374.913 48.7556 374.379 47.289C373.846 45.8223 373.313 44.0667 372.779 42.0223C372.246 44.0667 371.735 45.8223 371.246 47.289C370.757 48.7112 370.202 50.2001 369.579 51.7556L364.846 63.6223Z" fill="#2B2424"/>
<path d="M282.712 87.7556V25.7556L310.579 64.1556L337.912 25.7556V87.7556H330.312V60.0223C330.312 58.2001 330.335 56.2223 330.379 54.089C330.424 51.9112 330.579 49.4445 330.846 46.6889C329.468 49.1334 328.112 51.2889 326.779 53.1556C325.49 54.9778 324.312 56.6667 323.246 58.2223L310.312 76.5556L296.979 58.2223C295.868 56.6667 294.668 54.9778 293.379 53.1556C292.135 51.2889 290.801 49.1334 289.379 46.6889C289.646 49.4445 289.801 51.9112 289.846 54.089C289.89 56.2223 289.912 58.2001 289.912 60.0223V87.7556H282.712Z" fill="#2B2424"/>
<path d="M257.544 87.7556V27.7556H265.144V87.7556H257.544Z" fill="#2B2424"/>
<path d="M239.944 89.7556L197.944 44.7556V87.7556H190.744V25.7556L232.744 70.7556V27.7556H239.944V89.7556Z" fill="#2B2424"/>
<path d="M130.2 87.7556L155.6 25.7556H155.734L181.134 87.7556H173.067L166 69.9556H145L137.867 87.7556H130.2ZM147.534 63.6223H163.467L158.734 51.7556C158.156 50.2445 157.6 48.7556 157.067 47.289C156.534 45.8223 156 44.0667 155.467 42.0223C154.934 44.0667 154.422 45.8223 153.934 47.289C153.445 48.7112 152.889 50.2001 152.267 51.7556L147.534 63.6223Z" fill="#2B2424"/>
</svg>
